<?xml version="1.0" encoding="utf-8" ?>
<svg baseProfile="full" height="700px" version="1.1" width="100px" xmlns="http://www.w3.org/2000/svg" xmlns:ev="http://www.w3.org/2001/xml-events" xmlns:xlink="http://www.w3.org/1999/xlink"><defs><symbol id="pulse" viewBox="0 0 100 100"><defs /><polyline fill="none" points="0,50 20,50 20,0 80,0 80,50 100,50" stroke="black" stroke-width="4" /></symbol><symbol id="rectangle" viewBox="0 0 100 100"><defs /><polyline fill="none" points="0,50 25,50 25,0 75,0 75,50 100,50" stroke="black" stroke-width="4" /></symbol><symbol id="saturated" viewBox="0 0 100 100"><defs /><polyline fill="none" points="0,50.0 5,38.018297755193885 10,28.867965262181098 15,23.2380948531339 20,20.389560612014836 25,19.536233761769406 30,20.389560612014833 35,23.238094853133898 40,28.867965262181098 45,38.018297755193885 50,49.99999999999999 55,61.98170224480611 60,71.13203473781888 65,76.7619051468661 70,79.61043938798517 75,80.46376623823059 80,79.61043938798517 85,76.7619051468661 90,71.13203473781891 95,61.98170224480612 100,50.00000000000001" stroke="black" stroke-width="4" /></symbol><symbol id="saw" viewBox="0 0 100 100"><defs /><polyline fill="none" points="0,100 100,0 100,100" stroke="black" stroke-width="4" /></symbol><symbol id="sharktooth" viewBox="0 0 100 100"><defs /><polyline fill="none" points="0,100 80,0 100,100" stroke="black" stroke-width="4" /></symbol><symbol id="sine" viewBox="0 0 100 100"><defs /><polyline fill="none" points="0,50.0 5,37.6393202250021 10,26.488589908301073 15,17.63932022500211 20,11.957739348193861 25,10.0 30,11.957739348193854 35,17.639320225002102 40,26.48858990830107 45,37.6393202250021 50,49.99999999999999 55,62.36067977499789 60,73.5114100916989 65,82.36067977499789 70,88.04226065180615 75,90.0 80,88.04226065180615 85,82.3606797749979 90,73.51141009169893 95,62.360679774997905 100,50.00000000000001" stroke="black" stroke-width="4" /></symbol><symbol id="triangle" viewBox="0 0 100 100"><defs /><polyline fill="none" points="0,100 50,0 100,100" stroke="black" stroke-width="4" /></symbol></defs></svg>